# xmcd
#
# Track frame offsets:
#	150
#	18583
#	31742
#	52193
#	68714
#	83710
#	95509
#	109438
#	123495
#	136556
#	153117
#	165741
#
# Disc length: 2411 seconds
#
# Revision: 2
# Processed by: cddbd v1.5.2PL0 Copyright (c) Steve Scherf et al.
# Submitted via: EZCDAudioConverter 7.1.4.1
#
DISCID=9509690c
DTITLE=George Jones - Hits I Missed...And One I Didn't
DYEAR=2005
DGENRE=Country
TTITLE0=Funny How Time Slips Away
TTITLE1=Detroit City
TTITLE2=The Blues Man
TTITLE3=Here In The Real World
TTITLE4=If You're Gonna Do Me Wrong
TTITLE5=Today I Started Loving You Again
TTITLE6=On The Other Hand
TTITLE7=Pass Me By
TTITLE8=Skip A Rope
TTITLE9=Too Cold At Home
TTITLE10=Busted
TTITLE11=He Stopped Loving Her Today
EXTD=
EXTT0=
EXTT1=
EXTT2=
EXTT3=
EXTT4=
EXTT5=
EXTT6=
EXTT7=
EXTT8=
EXTT9=
EXTT10=
EXTT11=
PLAYORDER=
